<svg width="105" height="40" viewBox="0 0 105 40" fill="none" xmlns="http://www.w3.org/2000/svg">
<path d="M36.07 20.422H42.23V18.024H36.07V14.02H42.78V11.6H33.54V27H42.89V24.58H36.07V20.422ZM50.992 21.368L54.908 16H52.136L49.606 19.476L47.076 16H44.326L48.242 21.346L44.106 27H46.878L49.628 23.238L52.356 27H55.106L50.992 21.368ZM63.1477 15.714C61.4757 15.714 60.1997 16.33 59.2977 17.584V16H56.9217V31.4H59.2977V25.438C60.1997 26.67 61.4757 27.286 63.1477 27.286C64.6657 27.286 65.9417 26.736 67.0197 25.614C68.0977 24.492 68.6257 23.128 68.6257 21.5C68.6257 19.894 68.0977 18.53 67.0197 17.408C65.9417 16.286 64.6657 15.714 63.1477 15.714ZM60.2877 24.03C59.6277 23.348 59.2977 22.512 59.2977 21.5C59.2977 20.488 59.6277 19.652 60.2877 18.992C60.9477 18.31 61.7837 17.98 62.7737 17.98C63.7637 17.98 64.5997 18.31 65.2597 18.992C65.9197 19.652 66.2497 20.488 66.2497 21.5C66.2497 22.512 65.9197 23.348 65.2597 24.03C64.5997 24.69 63.7637 25.02 62.7737 25.02C61.7837 25.02 60.9477 24.69 60.2877 24.03ZM81.6251 22.512C81.6911 22.094 81.7131 21.764 81.7131 21.522C81.7131 19.916 81.1851 18.53 80.1511 17.408C79.1171 16.286 77.7971 15.714 76.1911 15.714C74.4971 15.714 73.0891 16.264 72.0111 17.386C70.9331 18.486 70.3831 19.85 70.3831 21.5C70.3831 23.172 70.9331 24.558 72.0331 25.658C73.1331 26.736 74.5851 27.286 76.3671 27.286C78.5011 27.286 80.1071 26.494 81.1851 24.888L79.2271 23.744C78.5891 24.646 77.6431 25.108 76.3891 25.108C74.5631 25.108 73.2211 24.184 72.8691 22.512H81.6251ZM72.8471 20.576C73.1771 18.904 74.4091 17.87 76.1691 17.87C77.7311 17.87 78.9851 18.794 79.3151 20.576H72.8471ZM89.8098 15.714C88.2478 15.714 87.1258 16.286 86.3998 17.408V16H84.0238V27H86.3998V21.104C86.3998 18.97 87.5218 17.936 89.1938 17.936C90.7118 17.936 91.6578 18.838 91.6578 20.488V27H94.0338V20.246C94.0338 17.43 92.3398 15.714 89.8098 15.714ZM102.95 16H100.222V12.92L97.8462 13.624V16H95.8222V18.288H97.8462V23.568C97.8462 26.45 99.3202 27.44 102.95 27V24.866C101.146 24.954 100.222 24.976 100.222 23.568V18.288H102.95V16Z" fill="white"/>
<rect y="6" width="8" height="8" rx="4" fill="#F07167"/>
<rect x="12" y="26" width="8" height="8" rx="4" fill="white"/>
<rect y="18" width="8" height="16" rx="4" fill="#00AFB9"/>
<rect x="12" y="6" width="8" height="16" rx="4" fill="#FED9B7"/>
</svg>
